<svg xmlns="http://www.w3.org/2000/svg" width="1200" height="360" viewBox="0 0 1200 360" role="img" aria-labelledby="title desc">
  <title id="title">Animal Gallery Manager</title><desc id="desc">Animated project banner for Animal Gallery Manager.</desc>
  <defs><linearGradient id="bg" x1="0" y1="0" x2="1" y2="1"><stop stop-color="#060a12"/><stop offset="1" stop-color="#11182a"/></linearGradient><linearGradient id="edge" x1="0" y1="0" x2="1" y2="0"><stop stop-color="#6eaaff"/><stop offset=".52" stop-color="#a88cff"/><stop offset="1" stop-color="#9edcff"/></linearGradient><filter id="glow" x="-50%" y="-50%" width="200%" height="200%"><feGaussianBlur stdDeviation="5" result="blur"/><feMerge><feMergeNode in="blur"/><feMergeNode in="SourceGraphic"/></feMerge></filter><clipPath id="frame"><rect x="1" y="1" width="1198" height="358" rx="22"/></clipPath></defs>
  <g clip-path="url(#frame)"><rect width="1200" height="360" fill="url(#bg)"/><path d="M0 326C115 286 181 342 286 300s184-84 286-41 181 75 279 20 221-85 349-36v117H0Z" fill="#6eaaff" fill-opacity=".055"/><path d="M0 326C115 286 181 342 286 300s184-84 286-41 181 75 279 20 221-85 349-36" fill="none" stroke="url(#edge)" stroke-width="2" stroke-opacity=".32" pathLength="1" stroke-dasharray="1" stroke-dashoffset="1"><animate attributeName="stroke-dashoffset" from="1" to="0" dur="3s" fill="freeze"/></path>
  <g transform="translate(72 55)" color="#6eaaff" filter="url(#glow)"><rect width="82" height="82" rx="18" fill="#6eaaff" fill-opacity=".08" stroke="#6eaaff" stroke-opacity=".45"/><g transform="translate(9 9)"><g fill="none" stroke="currentColor" stroke-width="4" stroke-linecap="round" stroke-linejoin="round"><circle cx="15" cy="18" r="6"/><circle cx="31" cy="11" r="6"/><circle cx="49" cy="18" r="6"/><circle cx="55" cy="34" r="6"/><path d="M16 45c0-10 7-19 16-19s16 9 16 19c0 8-7 12-16 8-9 4-16 0-16-8Z"/></g></g><animateTransform attributeName="transform" type="translate" values="72 55;72 49;72 55" dur="5s" repeatCount="indefinite"/></g>
  <text x="179" y="87" fill="#f8fafc" font-family="Segoe UI, Inter, Arial, sans-serif" font-size="39" font-weight="750">Animal Gallery Manager</text><text x="181" y="119" fill="#6eaaff" font-family="Segoe UI, Inter, Arial, sans-serif" font-size="15" font-weight="700">LOCAL ANIMAL COLLECTION</text><text x="72" y="178" fill="#cbd5e1" font-family="Segoe UI, Inter, Arial, sans-serif" font-size="18">Create, organize and preserve a personal animal gallery.</text>
  <g transform="translate(968 57)"><rect width="172" height="42" rx="10" fill="#6eaaff" fill-opacity=".08" stroke="#6eaaff" stroke-opacity=".45"/><circle cx="22" cy="21" r="5" fill="#9edcff" filter="url(#glow)"><animate attributeName="opacity" values="1;.3;1" dur="1.8s" repeatCount="indefinite"/></circle><text x="39" y="27" fill="#9edcff" font-family="Segoe UI, Inter, Arial, sans-serif" font-size="12" font-weight="750">PERSISTENT GALLERY</text></g>
  <g transform="translate(70 226)"><rect width="158" height="62" rx="10" fill="#ffffff" fill-opacity=".035" stroke="#6eaaff" stroke-opacity=".2"/><text x="16" y="27" fill="#9edcff" font-family="Segoe UI, Inter, Arial, sans-serif" font-size="16" font-weight="750">5</text><text x="16" y="47" fill="#94a3b8" font-family="Segoe UI, Inter, Arial, sans-serif" font-size="12">animal types</text></g><g transform="translate(242 226)"><rect width="158" height="62" rx="10" fill="#ffffff" fill-opacity=".035" stroke="#6eaaff" stroke-opacity=".2"/><text x="16" y="27" fill="#9edcff" font-family="Segoe UI, Inter, Arial, sans-serif" font-size="16" font-weight="750">URL</text><text x="16" y="47" fill="#94a3b8" font-family="Segoe UI, Inter, Arial, sans-serif" font-size="12">image input</text></g><g transform="translate(414 226)"><rect width="158" height="62" rx="10" fill="#ffffff" fill-opacity=".035" stroke="#6eaaff" stroke-opacity=".2"/><text x="16" y="27" fill="#9edcff" font-family="Segoe UI, Inter, Arial, sans-serif" font-size="16" font-weight="750">LIVE</text><text x="16" y="47" fill="#94a3b8" font-family="Segoe UI, Inter, Arial, sans-serif" font-size="12">item count</text></g><g transform="translate(586 226)"><rect width="158" height="62" rx="10" fill="#ffffff" fill-opacity=".035" stroke="#6eaaff" stroke-opacity=".2"/><text x="16" y="27" fill="#9edcff" font-family="Segoe UI, Inter, Arial, sans-serif" font-size="16" font-weight="750">LOCAL</text><text x="16" y="47" fill="#94a3b8" font-family="Segoe UI, Inter, Arial, sans-serif" font-size="12">saved gallery</text></g><g transform="translate(850 132)"><rect width="290" height="148" rx="16" fill="#ffffff" fill-opacity=".035" stroke="#6eaaff" stroke-opacity=".35"/><g transform="translate(24 25)" fill="none" stroke="#9edcff" stroke-width="2"><rect width="70" height="96" rx="10"/><rect x="85" width="70" height="96" rx="10"/><rect x="170" width="70" height="96" rx="10"/></g><g fill="#a88cff"><circle cx="59" cy="183" r="15"/><circle cx="144" cy="183" r="15"/><circle cx="229" cy="183" r="15"/></g><path d="M34 237h220" stroke="#6eaaff" stroke-width="4" stroke-linecap="round" pathLength="1" stroke-dasharray="1" stroke-dashoffset="1"><animate attributeName="stroke-dashoffset" from="1" to="0" dur="2s" fill="freeze"/></path></g></g><rect x="1" y="1" width="1198" height="358" rx="22" fill="none" stroke="url(#edge)" stroke-opacity=".62" stroke-width="2"/></svg>